<?xml version="1.0" encoding="UTF-8"?>
<svg version="1.1" xmlns="http://www.w3.org/2000/svg" width="360" height="360">
<path d="M0 0 C118.8 0 237.6 0 360 0 C360 118.8 360 237.6 360 360 C241.2 360 122.4 360 0 360 C0 241.2 0 122.4 0 0 Z " fill="#3F53C2" transform="translate(0,0)"/>
<path d="M0 0 C1.14140945 -0.00137466 2.28281891 -0.00274933 3.45881653 -0.00416565 C4.70678513 -0.00057037 5.95475372 0.0030249 7.24053955 0.00672913 C8.55785568 0.0065831 9.87517181 0.00643707 11.23240662 0.00628662 C14.84157243 0.00599972 18.450705 0.01187918 22.05986309 0.01886058 C25.83283507 0.02511191 29.60580782 0.02569933 33.37878418 0.02688599 C40.52205892 0.02999405 47.66531836 0.03820037 54.80858636 0.04823548 C62.94153315 0.0594129 71.07448067 0.06491117 79.20743322 0.06993091 C95.93625248 0.08038341 112.66505065 0.09872239 129.39385986 0.12025452 C129.39385986 14.31025452 129.39385986 28.50025452 129.39385986 43.12025452 C143.25385986 43.12025452 157.11385986 43.12025452 171.39385986 43.12025452 C171.48432233 60.40171774 171.55793586 77.68297738 171.60110855 94.96461201 C171.62169148 102.98964252 171.64972985 111.01451495 171.69561768 119.03944397 C171.73561683 126.03791881 171.76132367 133.0362791 171.77021384 140.03486508 C171.77540661 143.73704449 171.78752097 147.43889632 171.81678009 151.14097023 C171.84925831 155.28435625 171.84981095 159.42718089 171.84796143 163.57069397 C171.86234253 164.7841449 171.87672363 165.99759583 171.89154053 167.24781799 C171.84557532 176.79936299 169.83546559 185.28998704 164.33135986 193.24525452 C163.8453833 193.96970764 163.35940674 194.69416077 162.85870361 195.44056702 C161.39385986 197.12025452 161.39385986 197.12025452 158.39385986 198.12025452 C158.39385986 198.78025452 158.39385986 199.44025452 158.39385986 200.12025452 C156.77667236 201.48744202 156.77667236 201.48744202 154.51885986 202.99525452 C153.79956299 203.48767639 153.08026611 203.98009827 152.33917236 204.48744202 C143.38589194 209.45093169 135.98920442 210.69323358 125.77423096 210.57435608 C124.43287185 210.57322533 123.09151027 210.57386589 121.75015259 210.5761261 C118.13906795 210.57726534 114.52852385 210.553886 110.91756392 210.52583027 C107.13264232 210.50068328 103.34770587 210.49846421 99.56271362 210.49372864 C92.40890283 210.48133765 85.25533899 210.44856915 78.10163653 210.40833068 C69.95165514 210.36349157 61.80166144 210.34159554 53.65158725 210.32154894 C36.89884445 210.27983253 20.14644146 210.20652935 3.39385986 210.12025452 C3.39385986 196.26025452 3.39385986 182.40025452 3.39385986 168.12025452 C-10.13614014 168.12025452 -23.66614014 168.12025452 -37.60614014 168.12025452 C-37.71924709 150.5952885 -37.81125151 133.07063666 -37.865201 115.54540634 C-37.89092259 107.40713634 -37.92595648 99.26911015 -37.9833374 91.1309967 C-38.03335864 84.03326216 -38.06547503 76.93570429 -38.07658261 69.83779836 C-38.08306997 66.08352981 -38.09818833 62.32976645 -38.13479042 58.57566071 C-38.16904728 55.03296905 -38.17913444 51.49098457 -38.17167854 47.94814301 C-38.17368302 46.04668085 -38.20042153 44.1452935 -38.22824097 42.24403381 C-38.16267638 31.17096788 -34.80669672 20.54225954 -26.96551514 12.42103577 C-19.32963795 5.26628093 -10.59892907 -0.00985031 0 0 Z " fill="#FEFEFE" transform="translate(113.60614013671875,74.87974548339844)"/>
<path d="M0 0 C0.74446381 0.00359528 1.48892761 0.00719055 2.25595093 0.01089478 C3.0363826 0.01074875 3.81681427 0.01060272 4.62089539 0.01045227 C7.21273534 0.01115158 9.80450432 0.01894481 12.39633179 0.02676392 C14.18852194 0.02862803 15.9807126 0.03005196 17.77290344 0.03105164 C22.49938351 0.03487733 27.22583305 0.04470805 31.95230103 0.05575562 C36.77153104 0.06596863 41.59076596 0.07054902 46.41000366 0.07559204 C55.87290773 0.08633027 65.3357891 0.10340731 74.79867554 0.12442017 C74.82179897 10.66823328 74.83959062 21.21204041 74.85048771 31.75587368 C74.85571654 36.65127391 74.86281418 41.54665684 74.87411499 46.44204712 C74.88494388 51.16229994 74.89095237 55.88253609 74.89355278 60.60280037 C74.89540703 62.40780971 74.89902763 64.21281808 74.90440559 66.01782036 C74.91161606 68.53701661 74.91266648 71.05614307 74.91220093 73.5753479 C74.9157962 74.32916245 74.91939148 75.08297699 74.9230957 75.8596344 C74.9127277 81.010368 74.9127277 81.010368 73.79867554 82.12442017 C71.33962332 82.22473897 68.90864126 82.26060197 66.44906616 82.2538147 C65.67999435 82.25556702 64.91092255 82.25731934 64.11854553 82.25912476 C61.56398291 82.26354356 59.00948893 82.26060519 56.45492554 82.25723267 C54.68755073 82.2579057 52.92017601 82.25887572 51.15280151 82.26013184 C47.44376751 82.26160885 43.73475754 82.25945415 40.02572632 82.25479126 C35.26045061 82.24909397 30.49523122 82.25237296 25.72995758 82.25836372 C22.07896497 82.26196925 18.42798581 82.26083079 14.7769928 82.25823593 C13.01943454 82.25756664 11.26187509 82.25839517 9.50431824 82.26071548 C7.05227399 82.26324187 4.60032223 82.25940163 2.14828491 82.2538147 C1.41474289 82.25583893 0.68120087 82.25786316 -0.0745697 82.25994873 C-5.08706182 82.23868281 -5.08706182 82.23868281 -6.20132446 81.12442017 C-6.30166312 78.6348832 -6.33750389 76.17307063 -6.33071899 73.68301392 C-6.33247131 72.90418854 -6.33422363 72.12536316 -6.33602905 71.32293701 C-6.34044795 68.73590905 -6.33750945 66.14894888 -6.33413696 63.56192017 C-6.33480999 61.77212511 -6.33578001 59.98233014 -6.33703613 58.1925354 C-6.33851316 54.43642306 -6.3363584 50.68033445 -6.33169556 46.92422485 C-6.32599826 42.09841523 -6.32927725 37.27266122 -6.33526802 32.44685364 C-6.33887351 28.74953794 -6.3377351 25.05223552 -6.33514023 21.35491943 C-6.33447093 19.57503249 -6.3352995 17.79514435 -6.33761978 16.01525879 C-6.34014611 13.53208194 -6.33630601 11.04899642 -6.33071899 8.56582642 C-6.33274323 7.82293365 -6.33476746 7.08004089 -6.33685303 6.31463623 C-6.31155589 0.27647981 -6.03732524 0.01230424 0 0 Z " fill="#3F53C2" transform="translate(146.20132446289063,138.87557983398438)"/>
<path d="M0 0 C2.97 0.495 2.97 0.495 6 1 C5.34 2.32 4.68 3.64 4 5 C3.34 5 2.68 5 2 5 C1.72285156 5.71929687 1.44570312 6.43859375 1.16015625 7.1796875 C0.03807448 9.90744183 -1.21826106 12.50072458 -2.5625 15.125 C-4.95223424 19.79100929 -6.12423401 23.25627118 -6.15821838 28.52384949 C-6.1680072 29.67229843 -6.17779602 30.82074738 -6.18788147 32.0039978 C-6.19363693 33.26491241 -6.1993924 34.52582703 -6.20532227 35.82495117 C-6.2149018 37.16528118 -6.22491193 38.50560818 -6.23532104 39.84593201 C-6.26236802 43.48611484 -6.2833787 47.12631063 -6.30332303 50.76653838 C-6.32518385 54.57023849 -6.35257207 58.37389865 -6.37937927 62.17756653 C-6.42930485 69.38105252 -6.47424418 76.58456068 -6.51740164 83.78809005 C-6.56677516 91.98875544 -6.62169286 100.18938075 -6.67708123 108.39000738 C-6.79089922 125.25996931 -6.89700673 142.12996798 -7 159 C6.53 159 20.06 159 34 159 C34 172.86 34 186.72 34 201 C77.23 201 120.46 201 165 201 C165 201.33 165 201.66 165 202 C147.80661031 202.02332856 130.61322553 202.04097896 113.41982365 202.05181217 C105.437185 202.05697522 97.45455617 202.06401809 89.47192383 202.07543945 C82.51676201 202.08538602 75.56160731 202.09185336 68.60643858 202.09408849 C64.92148073 202.09539565 61.23654322 202.09848179 57.55159187 202.10573006 C53.44462292 202.1137434 49.33768963 202.11399116 45.23071289 202.11352539 C44.00001068 202.11712067 42.76930847 202.12071594 41.50131226 202.12442017 C40.38926926 202.1230455 39.27722626 202.12167084 38.13148499 202.12025452 C37.15899339 202.12117631 36.18650179 202.1220981 35.18454075 202.12304783 C33 202 33 202 32 201 C31.91132364 198.04316769 31.88472473 195.10914786 31.90234375 192.15234375 C31.90335083 191.36702271 31.90435791 190.58170166 31.90539551 189.77258301 C31.91064362 186.82754057 31.92460477 183.88251888 31.9375 180.9375 C31.958125 174.358125 31.97875 167.77875 32 161 C18.47 161 4.94 161 -9 161 C-9.04514315 142.31108391 -9.08198703 123.62221195 -9.10362434 104.9332552 C-9.11393785 96.2556952 -9.12799963 87.57817148 -9.15087891 78.90063477 C-9.17081047 71.3374856 -9.18371589 63.77436271 -9.18817699 56.21118802 C-9.19078476 52.20637999 -9.19691574 48.20164712 -9.21146011 44.19686317 C-9.22504033 40.42699622 -9.22922175 36.65723536 -9.22621536 32.88734627 C-9.22676533 31.50425388 -9.2307402 30.12115793 -9.23841095 28.7380867 C-9.24837845 26.84810711 -9.24477344 24.95807052 -9.24050903 23.06806946 C-9.24235262 22.01077291 -9.24419621 20.95347635 -9.24609566 19.86414051 C-8.99011905 16.88500228 -8.25361623 14.69917468 -7 12 C-6.01 12 -5.02 12 -4 12 C-3.7834375 10.824375 -3.7834375 10.824375 -3.5625 9.625 C-3 7 -3 7 -2 5 C-1.34 5 -0.68 5 0 5 C0 3.35 0 1.7 0 0 Z " fill="#727CBD" transform="translate(83,84)"/>
<path d="M0 0 C0.74446381 0.00359528 1.48892761 0.00719055 2.25595093 0.01089478 C3.0363826 0.01074875 3.81681427 0.01060272 4.62089539 0.01045227 C7.21273534 0.01115158 9.80450432 0.01894481 12.39633179 0.02676392 C14.18852194 0.02862803 15.9807126 0.03005196 17.77290344 0.03105164 C22.49938351 0.03487733 27.22583305 0.04470805 31.95230103 0.05575562 C36.77153104 0.06596863 41.59076596 0.07054902 46.41000366 0.07559204 C55.87290773 0.08633027 65.3357891 0.10340731 74.79867554 0.12442017 C74.82179897 10.66823328 74.83959062 21.21204041 74.85048771 31.75587368 C74.85571654 36.65127391 74.86281418 41.54665684 74.87411499 46.44204712 C74.88494388 51.16229994 74.89095237 55.88253609 74.89355278 60.60280037 C74.89540703 62.40780971 74.89902763 64.21281808 74.90440559 66.01782036 C74.91161606 68.53701661 74.91266648 71.05614307 74.91220093 73.5753479 C74.9157962 74.32916245 74.91939148 75.08297699 74.9230957 75.8596344 C74.9127277 81.010368 74.9127277 81.010368 73.79867554 82.12442017 C71.33962332 82.22473897 68.90864126 82.26060197 66.44906616 82.2538147 C65.67999435 82.25556702 64.91092255 82.25731934 64.11854553 82.25912476 C61.56398291 82.26354356 59.00948893 82.26060519 56.45492554 82.25723267 C54.68755073 82.2579057 52.92017601 82.25887572 51.15280151 82.26013184 C47.44376751 82.26160885 43.73475754 82.25945415 40.02572632 82.25479126 C35.26045061 82.24909397 30.49523122 82.25237296 25.72995758 82.25836372 C22.07896497 82.26196925 18.42798581 82.26083079 14.7769928 82.25823593 C13.01943454 82.25756664 11.26187509 82.25839517 9.50431824 82.26071548 C7.05227399 82.26324187 4.60032223 82.25940163 2.14828491 82.2538147 C1.41474289 82.25583893 0.68120087 82.25786316 -0.0745697 82.25994873 C-5.08706182 82.23868281 -5.08706182 82.23868281 -6.20132446 81.12442017 C-6.30166312 78.6348832 -6.33750389 76.17307063 -6.33071899 73.68301392 C-6.33247131 72.90418854 -6.33422363 72.12536316 -6.33602905 71.32293701 C-6.34044795 68.73590905 -6.33750945 66.14894888 -6.33413696 63.56192017 C-6.33480999 61.77212511 -6.33578001 59.98233014 -6.33703613 58.1925354 C-6.33851316 54.43642306 -6.3363584 50.68033445 -6.33169556 46.92422485 C-6.32599826 42.09841523 -6.32927725 37.27266122 -6.33526802 32.44685364 C-6.33887351 28.74953794 -6.3377351 25.05223552 -6.33514023 21.35491943 C-6.33447093 19.57503249 -6.3352995 17.79514435 -6.33761978 16.01525879 C-6.34014611 13.53208194 -6.33630601 11.04899642 -6.33071899 8.56582642 C-6.33274323 7.82293365 -6.33476746 7.08004089 -6.33685303 6.31463623 C-6.31155589 0.27647981 -6.03732524 0.01230424 0 0 Z M-4.20132446 2.12442017 C-4.20132446 27.86442017 -4.20132446 53.60442017 -4.20132446 80.12442017 C1.15013749 80.79335291 5.82373599 81.24756317 11.13265991 81.23794556 C12.17488583 81.23812636 12.17488583 81.23812636 13.23816681 81.23831081 C15.45628723 81.23757272 17.67432042 81.2299956 19.89242554 81.22207642 C21.27426106 81.22060357 22.65609715 81.21958497 24.03793335 81.21902466 C29.124856 81.21381149 34.21176665 81.19985027 39.29867554 81.18692017 C56.37617554 81.15598267 56.37617554 81.15598267 73.79867554 81.12442017 C73.79867554 55.05442017 73.79867554 28.98442017 73.79867554 2.12442017 C48.05867554 2.12442017 22.31867554 2.12442017 -4.20132446 2.12442017 Z " fill="#818CC4" transform="translate(146.20132446289063,138.87557983398438)"/>
<path d="M0 0 C0.33 0 0.66 0 1 0 C1 26.07 1 52.14 1 79 C-16.0775 79.0309375 -16.0775 79.0309375 -33.5 79.0625 C-38.87249023 79.07615601 -38.87249023 79.07615601 -44.35351562 79.09008789 C-48.76074219 79.09460449 -48.76074219 79.09460449 -50.83044434 79.09544373 C-52.26176261 79.09696931 -53.69307968 79.10046543 -55.12438965 79.10557556 C-69.99225304 79.15595826 -69.99225304 79.15595826 -77 78 C-77 77.67 -77 77.34 -77 77 C-51.92 77 -26.84 77 -1 77 C-1.03956481 53.52989571 -1.03956481 53.52989571 -1.09008789 30.05981445 C-1.09460449 25.51208496 -1.09460449 25.51208496 -1.09544373 23.38053894 C-1.09697549 21.89742228 -1.10048463 20.41430683 -1.10557556 18.93119812 C-1.11291495 16.67977751 -1.11390532 14.42843277 -1.11352539 12.17700195 C-1.115746 10.90903275 -1.11796661 9.64106354 -1.12025452 8.33467102 C-1.01509568 5.41860495 -0.67981337 2.82933934 0 0 Z " fill="#4355AA" transform="translate(219,141)"/>
<path d="M0 0 C0.99 0 1.98 0 3 0 C3.07014168 16.4378271 3.12301339 32.87560551 3.15543652 49.31354618 C3.17089259 56.94630505 3.19195792 64.57897082 3.22631836 72.21166992 C3.25625941 78.86584567 3.27558416 85.51995399 3.28226548 92.17419523 C3.28616981 95.69621756 3.29531897 99.21804701 3.31719017 102.7400074 C3.34143173 106.67574755 3.34196697 110.61130055 3.34057617 114.54711914 C3.351362 115.709496 3.36214783 116.87187286 3.3732605 118.06947327 C3.34993111 124.16895357 2.92954844 128.60792469 0 134 C-0.95656243 130.78834526 -1.11134531 127.92819397 -1.08229065 124.5836792 C-1.07525116 123.48434052 -1.06821167 122.38500183 -1.06095886 121.25234985 C-1.04801285 120.05113495 -1.03506683 118.84992004 -1.02172852 117.61230469 C-1.01212097 116.34375641 -1.00251343 115.07520813 -0.99261475 113.76821899 C-0.96618035 110.2933095 -0.93339143 106.81848557 -0.89946485 103.34364223 C-0.86507561 99.71083488 -0.83652591 96.07798175 -0.80735779 92.44512939 C-0.75124907 85.56744186 -0.68988574 78.68981165 -0.62663645 71.81218648 C-0.55487872 63.98156292 -0.48897596 56.15089351 -0.42356598 48.32021475 C-0.28889401 32.21341648 -0.14686613 16.10669179 0 0 Z " fill="#4654AD" transform="translate(286,118)"/>
<path d="M0 0 C0.99 0.495 0.99 0.495 2 1 C0.90344712 2.31886772 -0.20253423 3.62990057 -1.3125 4.9375 C-1.92738281 5.66839844 -2.54226563 6.39929688 -3.17578125 7.15234375 C-5 9 -5 9 -8 10 C-8.33 10.66 -8.66 11.32 -9 12 C-11.625 12.5625 -11.625 12.5625 -15 13 C-15.96019547 13.17168198 -16.92039093 13.34336395 -17.90968323 13.52024841 C-23.51453776 14.31688374 -29.17163634 14.13045156 -34.82006836 14.11352539 C-36.09880829 14.11367142 -37.37754822 14.11381744 -38.69503784 14.1139679 C-42.18419569 14.11425365 -45.67331885 14.10839279 -49.16246867 14.10139394 C-52.81530628 14.09512347 -56.46814478 14.09455368 -60.12098694 14.09336853 C-67.03041667 14.09026608 -73.9398305 14.08206738 -80.84925324 14.07201904 C-88.71867113 14.06082412 -96.58808981 14.05533895 -104.45751369 14.05032361 C-120.63835176 14.03988382 -136.81917385 14.02230548 -153 14 C-153 13.67 -153 13.34 -153 13 C-152.02072776 12.99780016 -152.02072776 12.99780016 -151.02167225 12.99555588 C-135.08597863 12.95839324 -119.15053757 12.89925422 -103.21502399 12.81609726 C-95.5084991 12.7764038 -87.80207488 12.74396237 -80.09545898 12.72900391 C-73.37299062 12.71593681 -66.65074469 12.68884447 -59.92840165 12.64538693 C-56.37379081 12.6228848 -52.81945315 12.60708248 -49.26476479 12.60811615 C-45.2820754 12.60901008 -41.30018266 12.57857051 -37.31762695 12.54589844 C-36.15812027 12.5509288 -34.99861359 12.55595917 -33.80397034 12.56114197 C-23.25027822 12.42805759 -13.31189458 10.20467674 -4.5859375 4.05078125 C-3 3 -3 3 0 2 C0 1.34 0 0.68 0 0 Z " fill="#4453A2" transform="translate(272,273)"/>
<path d="M0 0 C1.97663132 -0.00043808 1.97663132 -0.00043808 3.99319458 -0.00088501 C7.58982802 -0.00145668 11.1863269 0.01026746 14.78292918 0.02426291 C18.54787045 0.03680127 22.31281512 0.03794321 26.07777405 0.04031372 C33.19972156 0.04651938 40.32160737 0.06291779 47.44352776 0.0830127 C55.55477253 0.1054002 63.66602032 0.11637229 71.77728832 0.12640357 C88.45580966 0.14728486 105.13426902 0.182443 121.81274414 0.22705078 C121.81274414 0.55705078 121.81274414 0.88705078 121.81274414 1.22705078 C121.15197687 1.22943913 120.4912096 1.23182749 119.81041908 1.23428822 C103.70056015 1.29353499 87.59087252 1.36914658 71.48118019 1.46276569 C63.69051088 1.50764919 55.89988652 1.54708083 48.10913086 1.57348633 C41.31530605 1.59652693 34.52162439 1.62999212 27.72791326 1.67575234 C24.13375912 1.69960326 20.53974603 1.71838507 16.94551468 1.72466469 C12.92400332 1.7318868 8.90298013 1.76239178 4.8815918 1.79467773 C3.70194855 1.79324265 2.5223053 1.79180756 1.30691528 1.79032898 C-5.69378849 1.86957863 -11.61198798 2.82371263 -18.18725586 5.22705078 C-19.17725586 5.55705078 -20.16725586 5.88705078 -21.18725586 6.22705078 C-21.51725586 5.56705078 -21.84725586 4.90705078 -22.18725586 4.22705078 C-21.52725586 4.22705078 -20.86725586 4.22705078 -20.18725586 4.22705078 C-20.18725586 3.56705078 -20.18725586 2.90705078 -20.18725586 2.22705078 C-13.50632115 -0.23432015 -7.05783919 -0.04102042 0 0 Z " fill="#4855A3" transform="translate(120.187255859375,72.77294921875)"/>
<path d="M0 0 C2.97 0.495 2.97 0.495 6 1 C5.34 2.32 4.68 3.64 4 5 C3.34 5 2.68 5 2 5 C1.72027344 5.73605469 1.44054687 6.47210938 1.15234375 7.23046875 C0.10919734 9.73755624 -1.09534916 11.95850958 -2.4375 14.3125 C-5.93495206 21.13149676 -6.85579118 28.50217632 -8 36 C-8.33 36 -8.66 36 -9 36 C-9.05410136 32.93726169 -9.09372225 29.87548548 -9.125 26.8125 C-9.15013672 25.51602539 -9.15013672 25.51602539 -9.17578125 24.19335938 C-9.21038233 19.67791897 -9.15567916 16.09918517 -7 12 C-6.01 12 -5.02 12 -4 12 C-3.7834375 10.824375 -3.7834375 10.824375 -3.5625 9.625 C-3 7 -3 7 -2 5 C-1.34 5 -0.68 5 0 5 C0 3.35 0 1.7 0 0 Z " fill="#4757AC" transform="translate(83,84)"/>
<path d="M0 0 C0.66 0.33 1.32 0.66 2 1 C0.90344712 2.31886772 -0.20253423 3.62990057 -1.3125 4.9375 C-1.92738281 5.66839844 -2.54226563 6.39929688 -3.17578125 7.15234375 C-5 9 -5 9 -8 10 C-8.33 10.66 -8.66 11.32 -9 12 C-11.625 12.5625 -11.625 12.5625 -15 13 C-16.07515869 13.17200928 -17.15031738 13.34401855 -18.25805664 13.52124023 C-21.97118392 13.99631315 -25.50483343 14.11371316 -29.24609375 14.09765625 C-29.90207047 14.0962413 -30.55804718 14.09482635 -31.23390198 14.09336853 C-33.30181702 14.08783031 -35.36961842 14.07529002 -37.4375 14.0625 C-38.85090988 14.05747699 -40.26432148 14.0529155 -41.67773438 14.04882812 C-45.11852568 14.03788126 -48.55925172 14.02066038 -52 14 C-52 13.67 -52 13.34 -52 13 C-51.21987549 12.9906543 -50.43975098 12.98130859 -49.63598633 12.97167969 C-46.02756775 12.91728544 -42.42035145 12.83377646 -38.8125 12.75 C-36.97268555 12.72873047 -36.97268555 12.72873047 -35.09570312 12.70703125 C-24.05282789 12.41566251 -13.75511522 10.51725375 -4.5859375 4.05078125 C-3 3 -3 3 0 2 C0 1.34 0 0.68 0 0 Z " fill="#4956A4" transform="translate(272,273)"/>
<path d="M0 0 C0.66 0.33 1.32 0.66 2 1 C2 4 2 4 -0.1171875 6.15625 C-1.02726562 6.9296875 -1.93734375 7.703125 -2.875 8.5 C-5.73797009 10.94698299 -7.90408388 12.85612581 -10 16 C-10.66 15.67 -11.32 15.34 -12 15 C-10.09418525 8.71081134 -5.45314686 3.5655191 0 0 Z " fill="#EBF3FB" transform="translate(93,82)"/>
<path d="M0 0 C2.97 0.495 2.97 0.495 6 1 C5.34 2.32 4.68 3.64 4 5 C3.34 5 2.68 5 2 5 C1.7525 5.721875 1.505 6.44375 1.25 7.1875 C-0.10983674 10.24713266 -1.82917754 12.4673738 -4 15 C-4.17942163 11.05272412 -4.09350689 8.4019487 -2 5 C-1.34 5 -0.68 5 0 5 C0 3.35 0 1.7 0 0 Z " fill="#4B5AB7" transform="translate(83,84)"/>
<path d="M0 0 C0.66 0 1.32 0 2 0 C2.33 2.31 2.66 4.62 3 7 C1.8553125 7.5259375 1.8553125 7.5259375 0.6875 8.0625 C-2.90858118 10.65502364 -3.52103787 12.87447406 -5 17 C-5.99 16.67 -6.98 16.34 -8 16 C-5.36 10.72 -2.72 5.44 0 0 Z " fill="#4C59AB" transform="translate(284,254)"/>
<path d="M0 0 C0.33 0 0.66 0 1 0 C1 12.87 1 25.74 1 39 C-0.485 39.495 -0.485 39.495 -2 40 C-1.83923477 39.41752502 -1.67846954 38.83505005 -1.51283264 38.23492432 C-0.71811623 34.77155073 -0.76069922 31.27216626 -0.68359375 27.734375 C-0.6524221 26.54427826 -0.6524221 26.54427826 -0.62062073 25.33013916 C-0.55540027 22.80351156 -0.49636856 20.27678279 -0.4375 17.75 C-0.3942886 16.03384384 -0.35067347 14.31769778 -0.30664062 12.6015625 C-0.19974717 8.40114454 -0.09840271 4.20062511 0 0 Z " fill="#F1F7FE" transform="translate(242,75)"/>
<path d="M0 0 C0.66 0.33 1.32 0.66 2 1 C1.07265428 2.48555383 0.13275187 3.96327506 -0.8125 5.4375 C-1.33457031 6.26121094 -1.85664063 7.08492188 -2.39453125 7.93359375 C-4 10 -4 10 -7 11 C-7 11.66 -7 12.32 -7 13 C-7.66 13 -8.32 13 -9 13 C-6.58459921 7.98339837 -4.10495904 3.82185842 0 0 Z " fill="#DAE0F5" transform="translate(279,262)"/>
<path d="M0 0 C0.66 0.33 1.32 0.66 2 1 C0.95285076 2.32477959 -0.11344669 3.63443746 -1.1875 4.9375 C-1.77917969 5.66839844 -2.37085938 6.39929688 -2.98046875 7.15234375 C-5.32505203 9.29738803 -6.88391498 9.66094412 -10 10 C-10.33 9.34 -10.66 8.68 -11 8 C-9.73168307 7.18357746 -8.46024069 6.37200895 -7.1875 5.5625 C-6.12595703 4.88380859 -6.12595703 4.88380859 -5.04296875 4.19140625 C-3 3 -3 3 0 2 C0 1.34 0 0.68 0 0 Z " fill="#5360AE" transform="translate(272,273)"/>
<path d="M0 0 C1.33541537 2.67083074 1 5.07298555 1 8 C-0.65 8.33 -2.3 8.66 -4 9 C-4 5.00095031 -2.27413033 3.19799578 0 0 Z " fill="#4052B2" transform="translate(276,270)"/>
<path d="M0 0 C0.33 0.66 0.66 1.32 1 2 C1.66 2.33 2.32 2.66 3 3 C1.68 5.31 0.36 7.62 -1 10 C-1.33 10 -1.66 10 -2 10 C-2.17942163 6.05272412 -2.09350689 3.4019487 0 0 Z " fill="#535DB1" transform="translate(81,89)"/>
<path d="M0 0 C0.66 0.33 1.32 0.66 2 1 C0.6875 3.5 0.6875 3.5 -1 6 C-1.99 6 -2.98 6 -4 6 C-2.84826645 3.53199953 -1.95216435 1.95216435 0 0 Z " fill="#E2EBF8" transform="translate(279,262)"/>
</svg>
